# xmcd
#
# Track frame offsets: 
#        150
#        13200
#        32712
#        54337
#        71100
#        81300
#        97550
#        111800
#        132225
#        149937
#
# Disc length: 2184 seconds
#
# Revision: 0
# Processed by: cddbd v1.5.2PL0 Copyright (c) Steve Scherf et al.
# Submitted via: ExactAudioCopy v0.99pb5
#
DISCID=8b08860a
DTITLE=Charlotte Sometimes - Charlotte Sometimes
DYEAR=1991
DGENRE=Pop
TTITLE0=Red Letter
TTITLE1=Better Than Any
TTITLE2=Don't Make Me Laugh
TTITLE3=In My Arms
TTITLE4=Embrace
TTITLE5=Anymore
TTITLE6=Choices
TTITLE7=Nothing To Do With Love
TTITLE8=One By One
TTITLE9=Hide My Heart
EXTD=
EXTT0=
EXTT1=
EXTT2=
EXTT3=
EXTT4=
EXTT5=
EXTT6=
EXTT7=
EXTT8=
EXTT9=
PLAYORDER=
